<svg width="20" height="20" viewBox="0 0 20 20" fill="none" xmlns="http://www.w3.org/2000/svg">
<path d="M3.20816 2.54022L2.59426 1.83203C2.34261 2.05059 2.1056 2.28543 1.88477 2.53506L2.5877 3.1556C2.78089 2.93716 2.98817 2.73159 3.20816 2.54022Z" fill="black"/>
<path d="M2.05251 3.84754L1.27413 3.32495C1.08853 3.60197 0.921491 3.89101 0.774109 4.19015L1.61482 4.604C1.74381 4.34244 1.89005 4.08973 2.05251 3.84754Z" fill="black"/>
<path d="M9.88575 0.391215C9.11794 0.133467 8.31347 0.00185409 7.50354 0.00147328C6.04188 -0.000723687 4.61173 0.426249 3.39044 1.22943L3.90592 2.01261C4.97415 1.3101 6.22508 0.936736 7.50354 0.938846C11.1236 0.942243 14.0554 3.87997 14.052 7.50048C14.0486 11.121 11.1113 14.0532 7.4913 14.0499C3.87128 14.0465 0.939398 11.1087 0.942795 7.48821C0.943469 6.78254 1.05805 6.08159 1.28211 5.41243L0.391725 5.11434C-0.925866 9.0407 1.18847 13.2919 5.11427 14.6097C9.04006 15.9275 13.2907 13.8129 14.6083 9.88653C15.9259 5.9602 13.8115 1.70901 9.88575 0.391215Z" fill="black"/>
<path d="M7.50354 3.75114C8.56819 3.75337 9.58177 4.20776 10.2918 5.00113L10.9896 4.3759C9.26413 2.44664 6.30156 2.28163 4.37256 4.0074C2.44356 5.73313 2.27858 8.6961 4.00411 10.6254C5.72963 12.5546 8.69217 12.7196 10.6212 10.9939C10.7507 10.878 10.8737 10.7549 10.9896 10.6254L10.2918 10.0001C8.91161 11.5437 6.54155 11.6759 4.99823 10.2955C3.45488 8.91504 3.3227 6.54466 4.70294 5.00113C5.4156 4.20416 6.43453 3.74938 7.50354 3.75114Z" fill="black"/>
</svg>
