<svg width="60" height="60" viewBox="0 0 60 60" fill="none" xmlns="http://www.w3.org/2000/svg">
<circle cx="30" cy="30" r="30" fill="white"/>
<path d="M35.7422 30C35.7422 33.1714 33.1714 35.7422 30 35.7422C26.8286 35.7422 24.2578 33.1714 24.2578 30C24.2578 26.8286 26.8286 24.2578 30 24.2578C33.1714 24.2578 35.7422 26.8286 35.7422 30Z" fill="black"/>
<path d="M41.7868 18.2132L41.7817 18.208C41.278 17.6893 40.6648 17.2903 39.9866 17.0402L39.9786 17.0372L39.9786 17.0371C39.4213 16.8207 38.5628 16.5517 36.9385 16.4777L36.9384 16.4777C35.1331 16.3954 34.5974 16.3775 30 16.3775C25.4021 16.3775 24.8664 16.3949 23.0617 16.4773L41.7868 18.2132ZM41.7868 18.2132L41.792 18.2183M41.7868 18.2132L41.792 18.2183M41.792 18.2183C42.3106 18.722 42.7097 19.3356 42.9599 20.0135L43.429 19.8404M41.792 18.2183L43.429 19.8404M43.429 19.8404L42.963 20.0217C43.1798 20.5787 43.4488 21.4376 43.5227 23.062L43.5227 23.062C43.6051 24.8668 43.6225 25.4025 43.6225 30.0005C43.6225 34.5979 43.6051 35.1336 43.5227 36.9388C43.4484 38.5632 43.1793 39.4217 42.9629 39.979L42.9625 39.9801C42.4337 41.3508 41.3504 42.4342 39.9797 42.9629L39.9783 42.9634C39.4213 43.1802 38.5625 43.4493 36.938 43.5232L36.938 43.5232C35.1336 43.6055 34.598 43.6229 29.9995 43.6229C25.4016 43.6229 24.8664 43.6055 23.0616 43.5232L23.0615 43.5232C21.4371 43.4493 20.5783 43.1802 20.0213 42.9634L20.0213 42.9634L20.0129 42.9603C19.3347 42.7102 18.7216 42.3111 18.2179 41.7925L18.2128 41.7872L18.2075 41.7821C17.689 41.2785 17.2903 40.6654 17.0396 39.9868L17.0397 39.9868L17.0367 39.979C16.8202 39.4218 16.5512 38.5633 16.4773 36.9389L16.4773 36.9389C16.3949 35.1336 16.3771 34.5978 16.3771 30.0005C16.3771 25.4026 16.3949 24.8669 16.4773 23.062L16.4773 23.062C16.5512 21.4376 16.8202 20.5787 17.0367 20.0214L17.0367 20.0214L17.0396 20.0137C17.2902 19.3353 17.6894 18.722 18.208 18.2183L18.2133 18.2132L18.2185 18.2079C18.7216 17.6894 19.3351 17.2903 20.0134 17.0402L20.0134 17.0402L20.0215 17.0371C20.5782 16.8207 21.4371 16.5517 23.0616 16.4773L43.429 19.8404ZM41.7628 20.8046V20.8044C41.7628 19.3866 40.6134 18.2372 39.1956 18.2372C37.7778 18.2372 36.6283 19.3866 36.6283 20.8044C36.6283 22.2222 37.7778 23.3717 39.1956 23.3717C40.6135 23.3717 41.7622 22.2221 41.7628 20.8046ZM20.6537 30C20.6537 35.1619 24.8382 39.3458 30 39.3458C35.1614 39.3458 39.3458 35.1619 39.3458 30C39.3458 24.8381 35.1614 20.6542 30 20.6542C24.8382 20.6542 20.6537 24.8381 20.6537 30Z" fill="black" stroke="black"/>
<path d="M30 0C13.434 0 0 13.434 0 30C0 46.566 13.434 60 30 60C46.566 60 60 46.566 60 30C60 13.434 46.566 0 30 0ZM47.1227 37.1022C47.0393 38.936 46.7477 40.188 46.322 41.2839C45.4271 43.5979 43.5979 45.4271 41.2839 46.322C40.1884 46.7477 38.936 47.0389 37.1027 47.1227C35.2657 47.2064 34.6788 47.2266 30.0005 47.2266C25.3217 47.2266 24.7353 47.2064 22.8978 47.1227C21.0645 47.0389 19.812 46.7477 18.7166 46.322C17.5667 45.8894 16.5257 45.2115 15.6651 44.3349C14.789 43.4747 14.111 42.4333 13.6784 41.2839C13.2527 40.1884 12.9611 38.936 12.8778 37.1027C12.7931 35.2652 12.7734 34.6783 12.7734 30C12.7734 25.3217 12.7931 24.7348 12.8773 22.8978C12.9607 21.064 13.2518 19.812 13.6775 18.7161C14.1101 17.5667 14.7885 16.5253 15.6651 15.6651C16.5253 14.7885 17.5667 14.1106 18.7161 13.678C19.812 13.2523 21.064 12.9611 22.8978 12.8773C24.7348 12.7936 25.3217 12.7734 30 12.7734C34.6783 12.7734 35.2652 12.7936 37.1022 12.8778C38.936 12.9611 40.188 13.2523 41.2839 13.6775C42.4333 14.1101 43.4747 14.7885 44.3353 15.6651C45.2115 16.5257 45.8899 17.5667 46.322 18.7161C46.7482 19.812 47.0393 21.064 47.1231 22.8978C47.2069 24.7348 47.2266 25.3217 47.2266 30C47.2266 34.6783 47.2069 35.2652 47.1227 37.1022V37.1022Z" fill="black"/>
</svg>
