<svg width="56" height="56" viewBox="0 0 56 56" fill="none" xmlns="http://www.w3.org/2000/svg">
<circle cx="28" cy="28" r="28" fill="#9927C1"/>
<path d="M28.8002 16.4186C28.7125 16.3305 28.5934 16.2812 28.4688 16.2812V15.3438C28.4688 14.3097 27.6278 13.4688 26.5938 13.4688C25.5597 13.4688 24.7188 14.3097 24.7188 15.3438V16.2812H23.7813C23.522 16.2812 23.3125 16.4908 23.3125 16.75V20.5C23.3125 20.7592 23.522 20.9688 23.7813 20.9688H24.25V37.375C24.25 37.4406 24.2641 37.503 24.288 37.5592L25.6942 40.8405C25.7678 41.0134 25.9375 41.125 26.125 41.125V42.5312H27.0625V41.125C27.25 41.125 27.4197 41.0134 27.4933 40.8409L28.8995 37.5597C28.9239 37.503 28.9375 37.4406 28.9375 37.375V20.9688H29.0041L29.8806 26.665C29.9158 26.8938 30.1127 27.0625 30.3438 27.0625H31.2813C31.5405 27.0625 31.75 26.853 31.75 26.5938V19.5625C31.75 19.4378 31.7008 19.3187 31.6127 19.2311L28.8002 16.4186ZM25.6563 15.3438C25.6563 14.8267 26.0767 14.4062 26.5938 14.4062C27.1108 14.4062 27.5313 14.8267 27.5313 15.3438V16.2812H25.6563V15.3438ZM26.7536 40.1875H26.4339L25.4294 37.8438H27.7581L26.7536 40.1875ZM28 36.9062H25.1875V20.9688H28V36.9062ZM30.8125 26.125H30.7459L29.8694 20.4288C29.8342 20.2 29.6374 20.0312 29.4063 20.0312H24.25V17.2188H28.2747L30.8125 19.7566V26.125Z" fill="black"/>
<path d="M41.9252 19.2311L39.1127 16.4186C39.025 16.3305 38.9059 16.2812 38.7813 16.2812V15.3438C38.7813 14.3097 37.9403 13.4688 36.9063 13.4688C35.8722 13.4688 35.0313 14.3097 35.0313 15.3438V16.2812H34.0938C33.8345 16.2812 33.625 16.4908 33.625 16.75V20.5C33.625 20.7592 33.8345 20.9688 34.0938 20.9688H34.5625V37.375C34.5625 37.4406 34.5766 37.503 34.6005 37.5592L36.0067 40.8405C36.0803 41.0134 36.25 41.125 36.4375 41.125V42.5312H37.375V41.125C37.5625 41.125 37.7322 41.0134 37.8058 40.8409L39.212 37.5597C39.2364 37.503 39.25 37.4406 39.25 37.375V20.9688H39.3166L40.1931 26.665C40.2283 26.8938 40.4252 27.0625 40.6563 27.0625H41.5938C41.853 27.0625 42.0625 26.853 42.0625 26.5938V19.5625C42.0625 19.4378 42.0133 19.3187 41.9252 19.2311ZM35.9688 15.3438C35.9688 14.8267 36.3892 14.4062 36.9063 14.4062C37.4233 14.4062 37.8438 14.8267 37.8438 15.3438V16.2812H35.9688V15.3438ZM37.0661 40.1875H36.7464L35.7419 37.8438H38.0706L37.0661 40.1875ZM38.3125 36.9062H35.5V20.9688H38.3125V36.9062ZM41.125 26.125H41.0584L40.1819 20.4288C40.1467 20.2 39.9499 20.0312 39.7188 20.0312H34.5625V17.2188H38.5872L41.125 19.7566V26.125Z" fill="black"/>
<path d="M22.2953 40.6562H22.1406C21.587 40.6562 21.0517 40.8184 20.5923 41.125L20.3561 41.2825C19.7453 41.6898 18.9105 41.6898 18.2997 41.2825L18.0639 41.125C17.1456 40.5114 15.8861 40.5114 14.9678 41.125L14.1466 41.6725L14.6664 42.4525L15.4877 41.905C16.0984 41.4977 16.9333 41.4977 17.5441 41.905L17.7798 42.0625C18.2388 42.3691 18.7745 42.5312 19.3281 42.5312C19.8817 42.5312 20.417 42.3691 20.8764 42.0625L21.1127 41.905C21.4178 41.7011 21.7731 41.5938 22.1406 41.5938H22.2953C22.5822 41.5938 22.8686 41.6617 23.1245 41.7897L24.5092 42.482L24.9288 41.6434L23.5445 40.9516C23.1592 40.7584 22.7275 40.6562 22.2953 40.6562Z" fill="black"/>
</svg>
