<svg width="60" height="60" viewBox="0 0 60 60" fill="none" xmlns="http://www.w3.org/2000/svg">
<path d="M30.1172 24.6094C27.2093 24.6094 24.8438 26.9749 24.8438 29.8828C24.8438 32.7907 27.2093 35.1562 30.1172 35.1562C33.0251 35.1562 35.3906 32.7907 35.3906 29.8828C35.3906 26.9749 33.0251 24.6094 30.1172 24.6094Z" fill="black"/>
<path d="M29.8828 0C13.4051 0 0 13.4051 0 29.8828C0 46.3605 13.4051 60 29.8828 60C46.3605 60 60 46.3605 60 29.8828C60 13.4051 46.3605 0 29.8828 0ZM42.4219 38.6719C40.0461 38.6719 37.9509 37.4811 36.6777 35.6723C35.066 37.4966 32.7368 38.6719 30.1172 38.6719C25.2711 38.6719 21.3281 34.7289 21.3281 29.8828C21.3281 25.0368 25.2711 21.0938 30.1172 21.0938C32.1033 21.0938 33.9171 21.7811 35.3906 22.8964V22.8516C35.3906 21.88 36.1768 21.0938 37.1484 21.0938C38.12 21.0938 38.9062 21.88 38.9062 22.8516C38.9062 26.7609 38.9062 27.7295 38.9062 31.6406C38.9062 33.5787 40.4838 35.1562 42.4219 35.1562C44.3599 35.1562 45.9375 33.5787 45.9375 31.6406C45.9375 19.8761 38.1525 14.0625 30.1172 14.0625C21.3934 14.0625 14.2969 21.159 14.2969 29.8828C14.2969 38.6066 21.3934 45.7031 30.1172 45.7031C33.6328 45.7031 36.9579 44.5771 39.7337 42.445C41.5879 41.0296 43.7111 43.8237 41.876 45.2327C38.4789 47.8403 34.4139 49.2188 30.1172 49.2188C19.4554 49.2188 10.7812 40.5446 10.7812 29.8828C10.7812 19.221 19.4554 10.5469 30.1172 10.5469C39.8317 10.5469 49.4531 17.7111 49.4531 31.6406C49.4531 35.5185 46.2997 38.6719 42.4219 38.6719Z" fill="black"/>
</svg>
