<svg width="60" height="60" viewBox="0 0 60 60" fill="none" xmlns="http://www.w3.org/2000/svg">
<g clip-path="url(#clip0)">
<path d="M51.2097 8.78311C39.4922 -2.93083 20.4972 -2.92802 8.78323 8.78955C-2.93072 20.5071 -2.92791 39.502 8.78967 51.216C20.5072 62.9299 39.5022 62.9271 51.2161 51.2095C56.8418 45.5821 60.0014 37.9503 59.9997 29.9931C59.998 22.0373 56.8362 14.4079 51.2097 8.78311ZM45.4336 41.7892C45.4323 41.7905 45.431 41.7919 45.4296 41.7932V41.7832L43.9096 43.2932C41.9438 45.2838 39.0808 46.1029 36.3596 45.4532C33.618 44.7194 31.0117 43.5512 28.6396 41.9932C26.4358 40.5847 24.3934 38.9383 22.5496 37.0832C20.8531 35.3991 19.3289 33.5499 17.9996 31.5632C16.5455 29.4254 15.3946 27.0967 14.5796 24.6431C13.6452 21.7608 14.4195 18.598 16.5796 16.4732L18.3596 14.6932C18.8544 14.1961 19.6586 14.1944 20.1556 14.6892C20.1569 14.6905 20.1583 14.6918 20.1596 14.6932L25.7795 20.3132C26.2766 20.8081 26.2784 21.6122 25.7835 22.1092C25.7822 22.1105 25.7809 22.1118 25.7795 22.1132L22.4795 25.4132C21.5326 26.3497 21.4136 27.838 22.1996 28.9132C23.3931 30.5513 24.7139 32.0926 26.1496 33.5233C27.7503 35.1308 29.4904 36.5932 31.3496 37.8933C32.4238 38.6426 33.8802 38.5163 34.8095 37.5933L37.9995 34.3533C38.4944 33.8562 39.2985 33.8544 39.7955 34.3493C39.7968 34.3506 39.7981 34.3519 39.7995 34.3533L45.4295 39.9933C45.9267 40.4881 45.9285 41.2921 45.4336 41.7892Z" fill="black"/>
</g>
<defs>
<clipPath id="clip0">
<rect width="60" height="60" fill="white"/>
</clipPath>
</defs>
</svg>
