<svg width="56" height="56" viewBox="0 0 56 56" fill="none" xmlns="http://www.w3.org/2000/svg">
<circle cx="28" cy="28" r="28" fill="#9927C1"/>
<path d="M40.8885 15.5H15.1115C13.9499 15.4973 13.0052 16.4354 13 17.597V33.5695C13.0052 34.7311 13.9499 35.6693 15.1115 35.6665H26.119V39.5H19.7145C19.4384 39.5 19.2145 39.7239 19.2145 40C19.2145 40.2761 19.4384 40.5 19.7145 40.5H36.2855C36.5616 40.5 36.7855 40.2761 36.7855 40C36.7855 39.7239 36.5616 39.5 36.2855 39.5H29.881V35.6665H40.8885C42.0501 35.6693 42.9947 34.7311 43 33.5695V17.597C42.9947 16.4354 42.0501 15.4973 40.8885 15.5ZM28.881 39.5H27.119V35.6665H28.881V39.5ZM42 33.5695C41.9953 34.1791 41.4981 34.6698 40.8885 34.6665H15.1115C14.5019 34.6698 14.0047 34.1791 14 33.5695V32.2145H42V33.5695ZM42 31.2145H14V17.597C14.0047 16.9874 14.5019 16.4967 15.1115 16.5H40.8885C41.4981 16.4967 41.9953 16.9874 42 17.597V31.2145Z" fill="black"/>
<path d="M28.5 23.5V22.5H26.9C26.8114 21.8059 26.5385 21.1483 26.1095 20.5955L27.2405 19.4645L26.5335 18.7575L25.4025 19.8885C24.8501 19.4606 24.1932 19.1883 23.5 19.1V17.5H22.5V19.1C21.8059 19.1886 21.1483 19.4615 20.5955 19.8905L19.4645 18.7595L18.7575 19.4665L19.8885 20.5975C19.4606 21.1499 19.1883 21.8068 19.1 22.5H17.5V23.5H19.1C19.1879 24.1939 19.4603 24.8515 19.8885 25.4045L18.7575 26.5355L19.4645 27.2425L20.5955 26.1115C21.1485 26.5398 21.8061 26.8121 22.5 26.9V28.5H23.5V26.9C24.1941 26.8115 24.8517 26.5385 25.4045 26.1095L26.5355 27.2405L27.2425 26.5335L26.1115 25.4025C26.5394 24.8501 26.8117 24.1932 26.9 23.5H28.5ZM23 25.9375C21.3777 25.9375 20.0625 24.6223 20.0625 23C20.0644 21.3784 21.3784 20.0644 23 20.0625C24.6223 20.0625 25.9375 21.3777 25.9375 23C25.9375 24.6223 24.6223 25.9375 23 25.9375Z" fill="black"/>
<path d="M35 27.5V26.5H34.32C34.259 26.2206 34.1477 25.9546 33.9915 25.715L34.4745 25.232L33.7675 24.525L33.2845 25.008C33.0449 24.8522 32.7792 24.7411 32.5 24.68V24H31.5V24.68C31.2208 24.7411 30.9551 24.8522 30.7155 25.008L30.2325 24.525L29.5255 25.232L30.0085 25.715C29.8523 25.9546 29.741 26.2206 29.68 26.5H29V27.5H29.68C29.741 27.7794 29.8523 28.0454 30.0085 28.285L29.5255 28.768L30.2325 29.475L30.7155 28.992C30.9551 29.1478 31.2208 29.2589 31.5 29.32V30H32.5V29.32C32.7792 29.2589 33.0449 29.1478 33.2845 28.992L33.7675 29.475L34.4745 28.768L33.9915 28.285C34.1477 28.0454 34.259 27.7794 34.32 27.5H35ZM32 28.375C31.2406 28.375 30.625 27.7594 30.625 27C30.6256 26.2408 31.2408 25.6256 32 25.625C32.7594 25.625 33.375 26.2406 33.375 27C33.375 27.7594 32.7594 28.375 32 28.375Z" fill="black"/>
<path d="M32.408 19.5C32.2568 19.0765 31.9234 18.7433 31.5 18.592V18H30.5V18.592C30.0766 18.7433 29.7432 19.0766 29.592 19.5H29V20.5H29.592C29.7432 20.9234 30.0766 21.2568 30.5 21.408V22H31.5V21.408C31.9235 21.2568 32.2568 20.9234 32.408 20.5H33V19.5H32.408ZM31 20.5C30.7239 20.5 30.5 20.2761 30.5 20C30.5 19.7239 30.7239 19.5 31 19.5C31.2761 19.5 31.5 19.7239 31.5 20C31.5 20.2761 31.2761 20.5 31 20.5Z" fill="black"/>
<path d="M23 21C21.8954 21 21 21.8954 21 23C21 24.1046 21.8954 25 23 25C24.1046 25 25 24.1046 25 23C25 21.8954 24.1046 21 23 21ZM23 24C22.4477 24 22 23.5523 22 23C22 22.4477 22.4477 22 23 22C23.5523 22 24 22.4477 24 23C24 23.5523 23.5523 24 23 24Z" fill="black"/>
</svg>
