<svg width="56" height="56" viewBox="0 0 56 56" fill="none" xmlns="http://www.w3.org/2000/svg">
<circle cx="28" cy="28" r="28" fill="#9927C1"/>
<path d="M33.263 23.8827C33.1686 23.8827 33.0772 23.8497 33.0045 23.7894C32.9318 23.7292 32.8825 23.6455 32.8649 23.5527C32.046 19.2433 30.0907 16.3446 28 16.3446C25.9094 16.3446 23.9541 19.2433 23.1352 23.5527C23.1151 23.6584 23.0539 23.7517 22.965 23.8122C22.8762 23.8728 22.7669 23.8955 22.6612 23.8754C22.5556 23.8554 22.4623 23.7942 22.4017 23.7053C22.3412 23.6164 22.3185 23.5072 22.3385 23.4015C23.2462 18.6222 25.4687 15.5338 28 15.5338C30.5314 15.5338 32.7538 18.6222 33.6619 23.4015C33.6731 23.4602 33.6712 23.5206 33.6563 23.5784C33.6414 23.6363 33.6139 23.6901 33.5758 23.7361C33.5377 23.782 33.4899 23.819 33.4358 23.8444C33.3817 23.8697 33.3227 23.8828 33.263 23.8827Z" fill="black"/>
<path d="M28 40.4662C25.4687 40.4662 23.2462 37.3779 22.3381 32.5985C22.3282 32.5462 22.3287 32.4924 22.3395 32.4403C22.3504 32.3881 22.3714 32.3386 22.4014 32.2946C22.4314 32.2506 22.4697 32.2129 22.5143 32.1837C22.5588 32.1545 22.6087 32.1343 22.661 32.1244C22.7134 32.1145 22.7671 32.115 22.8193 32.1258C22.8714 32.1367 22.9209 32.1577 22.965 32.1877C23.009 32.2177 23.0467 32.256 23.0759 32.3006C23.1051 32.3451 23.1252 32.395 23.1352 32.4473C23.9541 36.7568 25.9094 39.6554 28 39.6554C30.0907 39.6554 32.046 36.7568 32.8649 32.4473C32.885 32.3417 32.9462 32.2483 33.035 32.1878C33.1239 32.1273 33.2332 32.1046 33.3388 32.1246C33.4445 32.1447 33.5378 32.2059 33.5983 32.2947C33.6588 32.3836 33.6816 32.4929 33.6615 32.5985C32.7538 37.3779 30.5314 40.4662 28 40.4662Z" fill="black"/>
<path d="M28 40.4662C27.8925 40.4662 27.7894 40.4235 27.7133 40.3475C27.6373 40.2715 27.5946 40.1683 27.5946 40.0608V32.5227C27.5946 32.4152 27.6373 32.3121 27.7133 32.2361C27.7894 32.16 27.8925 32.1173 28 32.1173C28.1075 32.1173 28.2106 32.16 28.2867 32.2361C28.3627 32.3121 28.4054 32.4152 28.4054 32.5227V40.0608C28.4054 40.1683 28.3627 40.2715 28.2867 40.3475C28.2106 40.4235 28.1075 40.4662 28 40.4662Z" fill="black"/>
<path d="M28 23.8827C27.8925 23.8827 27.7894 23.84 27.7133 23.764C27.6373 23.688 27.5946 23.5848 27.5946 23.4773V15.9392C27.5946 15.8317 27.6373 15.7286 27.7133 15.6526C27.7894 15.5765 27.8925 15.5338 28 15.5338C28.1075 15.5338 28.2106 15.5765 28.2867 15.6526C28.3627 15.7286 28.4054 15.8317 28.4054 15.9392V23.4773C28.4054 23.5848 28.3627 23.688 28.2867 23.764C28.2106 23.84 28.1075 23.8827 28 23.8827Z" fill="black"/>
<path d="M38.232 34.7865C38.1596 34.7864 38.0886 34.7668 38.0263 34.73C37.964 34.6931 37.9127 34.6403 37.8777 34.5769C37.8428 34.5135 37.8254 34.4419 37.8275 34.3695C37.8296 34.2972 37.851 34.2267 37.8895 34.1654C38.2461 33.5952 38.5526 32.9951 38.8053 32.3719C38.8458 32.2722 38.9242 32.1927 39.0233 32.1509C39.1224 32.109 39.2341 32.1082 39.3337 32.1487C39.4334 32.1892 39.5129 32.2676 39.5548 32.3667C39.5966 32.4658 39.5974 32.5775 39.5569 32.6772C39.2861 33.3442 38.9578 33.9865 38.5758 34.5968C38.5393 34.6549 38.4886 34.7028 38.4284 34.736C38.3683 34.7692 38.3007 34.7866 38.232 34.7865Z" fill="black"/>
<path d="M28 40.4662C25.5153 40.4735 23.0856 39.7349 21.0252 38.3462C18.9648 36.9574 17.3686 34.9823 16.4431 32.6763C16.4036 32.5768 16.4051 32.4658 16.4472 32.3674C16.4894 32.2689 16.5687 32.1912 16.6679 32.151C16.7671 32.1109 16.8782 32.1116 16.9769 32.1531C17.0756 32.1945 17.1539 32.2733 17.1947 32.3723C17.7784 33.8137 18.6445 35.1238 19.7422 36.2254C20.8398 37.327 22.1468 38.1979 23.5861 38.7867C25.0254 39.3756 26.5679 39.6706 28.123 39.6543C29.678 39.6379 31.214 39.3107 32.6407 38.6918C32.6895 38.6705 32.742 38.659 32.7953 38.658C32.8485 38.657 32.9015 38.6665 32.951 38.686C33.0006 38.7054 33.0459 38.7345 33.0842 38.7714C33.1226 38.8084 33.1533 38.8525 33.1746 38.9013C33.1959 38.9502 33.2074 39.0027 33.2083 39.056C33.2093 39.1092 33.1998 39.1621 33.1804 39.2117C33.1609 39.2613 33.1319 39.3066 33.0949 39.3449C33.058 39.3833 33.0138 39.414 32.965 39.4353C31.399 40.1182 29.7084 40.4693 28 40.4662Z" fill="black"/>
<path d="M35.2693 38.0298C35.1842 38.0298 35.1013 38.003 35.0323 37.9533C34.9633 37.9035 34.9116 37.8333 34.8847 37.7526C34.8578 37.6719 34.857 37.5847 34.8824 37.5035C34.9077 37.4223 34.958 37.3511 35.0261 37.3001C35.342 37.0619 35.6451 36.8072 35.9342 36.5371C36.0133 36.4666 36.1168 36.4299 36.2226 36.4348C36.3284 36.4396 36.4281 36.4857 36.5004 36.5632C36.5726 36.6406 36.6117 36.7433 36.6092 36.8492C36.6068 36.9551 36.563 37.0558 36.4872 37.1298C36.1774 37.4194 35.8527 37.6925 35.5142 37.9479C35.4438 38.0014 35.3577 38.0302 35.2693 38.0298Z" fill="black"/>
<path d="M39.1819 23.8827C39.1012 23.8827 39.0223 23.8586 38.9553 23.8134C38.8883 23.7683 38.8364 23.7042 38.8061 23.6293C37.9353 21.4769 36.4415 19.6336 34.5162 18.3357C32.5909 17.0377 30.3219 16.3443 28 16.3443C25.6781 16.3443 23.4091 17.0377 21.4839 18.3357C19.5586 19.6336 18.0648 21.4769 17.1939 23.6293C17.1742 23.679 17.1449 23.7243 17.1076 23.7626C17.0703 23.8009 17.0258 23.8315 16.9766 23.8525C16.9275 23.8736 16.8746 23.8847 16.8212 23.8852C16.7677 23.8857 16.7146 23.8757 16.6651 23.8556C16.6155 23.8356 16.5704 23.8059 16.5323 23.7684C16.4943 23.7308 16.464 23.6861 16.4433 23.6368C16.4226 23.5875 16.4119 23.5346 16.4117 23.4811C16.4115 23.4277 16.4219 23.3747 16.4423 23.3252C17.3737 21.0231 18.9714 19.0516 21.0306 17.6634C23.0898 16.2752 25.5166 15.5336 28 15.5336C30.4834 15.5336 32.9103 16.2752 34.9694 17.6634C37.0286 19.0516 38.6263 21.0231 39.5577 23.3252C39.5978 23.4248 39.5967 23.5362 39.5548 23.635C39.5128 23.7338 39.4334 23.8119 39.3339 23.8523C39.2857 23.872 39.2341 23.8823 39.1819 23.8827Z" fill="black"/>
<path d="M40.9223 32.9281H15.0777C14.7418 32.9277 14.4198 32.7941 14.1824 32.5566C13.9449 32.3191 13.8112 31.9971 13.8108 31.6612V24.3388C13.8112 24.0029 13.9449 23.6809 14.1824 23.4434C14.4198 23.2059 14.7418 23.0723 15.0777 23.0719H40.9223C41.2582 23.0723 41.5802 23.2059 41.8177 23.4434C42.0552 23.6809 42.1888 24.0029 42.1892 24.3388V31.6612C42.1888 31.9971 42.0552 32.3191 41.8177 32.5566C41.5802 32.7941 41.2582 32.9277 40.9223 32.9281ZM15.0777 23.8827C14.9568 23.8829 14.8409 23.931 14.7554 24.0165C14.67 24.102 14.6218 24.2179 14.6216 24.3388V31.6612C14.6218 31.7821 14.67 31.898 14.7554 31.9835C14.8409 32.069 14.9568 32.1171 15.0777 32.1173H40.9223C41.0432 32.1171 41.1591 32.069 41.2446 31.9835C41.33 31.898 41.3782 31.7821 41.3784 31.6612V24.3388C41.3782 24.2179 41.33 24.102 41.2446 24.0165C41.1591 23.931 41.0432 23.8829 40.9223 23.8827H15.0777Z" fill="black"/>
<path d="M23.8182 25.9446L22.6794 30.0554H22.1581L21.1709 26.483L20.1809 30.0554H19.6592L18.524 25.9446H19.0961L19.9178 29.2928L20.8433 25.9446H21.4965L22.422 29.2928L23.2438 25.9446H23.8182Z" fill="black"/>
<path d="M22.718 30.1081H22.1216L21.173 26.6751L20.2195 30.1081H19.6211L18.4572 25.8959H19.1354L19.9199 29.0941L20.8045 25.8959H21.5342L22.4184 29.0941L23.2032 25.8959H23.8843L22.718 30.1081ZM22.1966 30.0067H22.6426L23.7534 25.9972H23.2827L22.4245 29.4955L21.4576 25.9972H20.8811L19.9146 29.4955L19.056 25.9972H18.5901L19.6977 30.0067H20.1437L21.1722 26.2948L22.1966 30.0067Z" fill="black"/>
<path d="M30.6473 25.9446L29.5085 30.0554H28.9872L28 26.483L27.01 30.0554H26.4886L25.3535 25.9446H25.9255L26.7473 29.2928L27.6728 25.9446H28.3243L29.2499 29.2928L30.0716 25.9446H30.6473Z" fill="black"/>
<path d="M29.547 30.1081H28.9486L28 26.6731L27.0485 30.1081H26.4501L25.2862 25.8959H25.9645L26.7493 29.0942L27.6351 25.8939H28.3649L29.2491 29.0922L30.0343 25.8939H30.715L29.547 30.1081ZM29.0253 30.0068H29.4712L30.5816 25.9973H30.1122L29.2535 29.4955L28.287 25.9973H27.7101L26.7432 29.4935L25.8846 25.9953H25.4192L26.5268 30.0047H26.9727L28 26.2928L29.0253 30.0068Z" fill="black"/>
<path d="M37.4764 25.9446L36.338 30.0554H35.8162L34.8291 26.483L33.8378 30.0554H33.3177L32.1826 25.9446H32.7546L33.5764 29.2928L34.5019 25.9446H35.1554L36.0805 29.2928L36.9023 25.9446H37.4764Z" fill="black"/>
<path d="M36.3761 30.1081H35.7781L34.8291 26.6751L33.8784 30.1081H33.2792L32.1153 25.8959H32.7935L33.5784 29.0941L34.4626 25.8959H35.1923L36.0769 29.0941L36.8614 25.8959H37.5424L36.3761 30.1081ZM35.8547 30.0067H36.3007L37.4111 25.9972H36.9412L36.083 29.4955L35.1161 25.9972H34.5396L33.5727 29.4955L32.7145 25.9972H32.2482L33.3562 30.0067H33.8022L34.8303 26.2948L35.8547 30.0067Z" fill="black"/>
</svg>
