<svg width="60" height="60" viewBox="0 0 60 60" fill="none" xmlns="http://www.w3.org/2000/svg">
<circle cx="30" cy="30" r="30" fill="white"/>
<path d="M42.4826 17.7272L42.4826 17.7271L42.4726 17.731L13.5476 28.8835L13.7275 29.35L13.5455 28.8843C13.017 29.0909 12.5906 29.3309 12.2821 29.6018C11.9763 29.8703 11.7475 30.2053 11.7132 30.597C11.6774 31.0047 11.8619 31.3554 12.141 31.6181C12.4129 31.8741 12.7929 32.0684 13.2363 32.2091L13.2386 32.2098L20.6436 34.5198L20.8637 34.5885L21.0589 34.4656L37.5327 24.0937L24.6673 35.7165L24.5177 35.8516L24.5037 36.0527L23.9712 43.6852L23.9339 44.22H24.47C24.9382 44.22 25.3043 44.1159 25.6181 43.9336C25.9063 43.7661 26.1305 43.5417 26.3189 43.3533L26.3328 43.3393L29.643 40.1503L36.8034 45.4275L36.8274 45.4452L36.8535 45.46C37.5958 45.8807 38.3632 46.0582 39.0372 45.753C39.7091 45.4487 40.1017 44.7485 40.2981 43.8633L40.2991 43.8588L45.2241 20.6563L45.5747 19.0045L45.2914 19.2881C45.2185 18.7966 45.0241 18.3831 44.708 18.0751C44.1232 17.5051 43.2729 17.4417 42.4826 17.7272ZM59.5 30C59.5 46.2964 46.2964 59.5 30 59.5C13.7036 59.5 0.5 46.2964 0.5 30C0.5 13.7036 13.7036 0.5 30 0.5C46.2964 0.5 59.5 13.7036 59.5 30Z" fill="black" stroke="black"/>
</svg>
