<svg width="60" height="60" viewBox="0 0 60 60" fill="none" xmlns="http://www.w3.org/2000/svg">
<circle cx="30" cy="30" r="30" fill="white"/>
<path d="M30 0C13.434 0 0 13.434 0 30C0 46.566 13.434 60 30 60C46.566 60 60 46.566 60 30C60 13.434 46.566 0 30 0ZM30.6358 47.4669C30.6354 47.4669 30.6363 47.4669 30.6358 47.4669H30.6285C27.6233 47.4655 24.6703 46.712 22.0477 45.282L12.5294 47.7782L15.0769 38.4764C13.5054 35.7545 12.6787 32.6665 12.6801 29.5029C12.6842 19.606 20.739 11.5544 30.6358 11.5544C35.4387 11.5562 39.9472 13.4258 43.3369 16.8182C46.7271 20.2112 48.593 24.7211 48.5912 29.5171C48.587 39.4144 40.5313 47.4669 30.6358 47.4669V47.4669Z" fill="black"/>
<path d="M30.6418 14.5862C22.4098 14.5862 15.715 21.2782 15.7114 29.5042C15.7105 32.3232 16.4996 35.0684 17.9933 37.4437L18.3481 38.0081L16.8402 43.5136L22.4886 42.0323L23.0338 42.3555C25.3249 43.7151 27.9515 44.4342 30.6294 44.4351H30.6354C38.8609 44.4351 45.5557 37.7426 45.5594 29.5161C45.5608 25.5295 44.0099 21.7813 41.1923 18.9615C38.3748 16.1417 34.6275 14.5876 30.6418 14.5862ZM39.4199 35.9184C39.0459 36.9658 37.2537 37.9221 36.3918 38.0511C35.6186 38.1665 34.6408 38.2146 33.566 37.8735C32.9141 37.6666 32.0787 37.3906 31.008 36.9287C26.5077 34.986 23.5684 30.4559 23.3441 30.1566C23.1198 29.8572 21.5121 27.7245 21.5121 25.5167C21.5121 23.3093 22.6712 22.224 23.0823 21.7754C23.4938 21.3263 23.98 21.2141 24.2789 21.2141C24.5778 21.2141 24.8772 21.2169 25.1386 21.2297C25.4141 21.2434 25.784 21.1249 26.1479 21.9997C26.5219 22.8978 27.4191 25.1051 27.5313 25.3294C27.6434 25.5542 27.7181 25.816 27.5688 26.1154C27.4191 26.4148 26.922 27.0607 26.4473 27.6494C26.2482 27.8961 25.9886 28.1158 26.2505 28.5649C26.5118 29.0135 27.4127 30.4825 28.7462 31.6718C30.4601 33.1998 31.9057 33.6731 32.3543 33.8979C32.8024 34.1222 33.0643 34.0846 33.3261 33.7857C33.5875 33.4863 34.4476 32.476 34.7466 32.027C35.0455 31.5779 35.3449 31.653 35.7559 31.8027C36.1675 31.9519 38.373 33.0373 38.8216 33.2616C39.2702 33.4863 39.5691 33.5985 39.6813 33.7857C39.7939 33.9729 39.7939 34.8706 39.4199 35.9184Z" fill="black"/>
</svg>
